<?xml version="1.0" encoding="UTF-8" standalone="no"?>
<!-- Created with Inkscape (http://www.inkscape.org/) -->

<svg
   xmlns:dc="http://purl.org/dc/elements/1.1/"
   xmlns:cc="http://creativecommons.org/ns#"
   xmlns:rdf="http://www.w3.org/1999/02/22-rdf-syntax-ns#"
   xmlns:svg="http://www.w3.org/2000/svg"
   xmlns="http://www.w3.org/2000/svg"
   xmlns:sodipodi="http://sodipodi.sourceforge.net/DTD/sodipodi-0.dtd"
   xmlns:inkscape="http://www.inkscape.org/namespaces/inkscape"
   width="120"
   height="42"
   id="svg2759"
   sodipodi:version="0.32"
   inkscape:version="0.48.2 r9819"
   version="1.0"
   sodipodi:docname="by-sa.svg"
   inkscape:output_extension="org.inkscape.output.svg.inkscape">
  <defs
     id="defs2761" />
  <sodipodi:namedview
     id="base"
     pagecolor="#ffffff"
     bordercolor="#8b8b8b"
     borderopacity="1"
     gridtolerance="10000"
     guidetolerance="10"
     objecttolerance="10"
     inkscape:pageopacity="0.0"
     inkscape:pageshadow="2"
     inkscape:zoom="2.8284271"
     inkscape:cx="27.163554"
     inkscape:cy="79.402413"
     inkscape:document-units="px"
     inkscape:current-layer="layer1"
     width="120px"
     height="42px"
     inkscape:showpageshadow="false"
     inkscape:window-width="1680"
     inkscape:window-height="975"
     inkscape:window-x="0"
     inkscape:window-y="24"
     showgrid="false"
     inkscape:window-maximized="1" />
  <metadata
     id="metadata2764">
    <rdf:RDF>
      <cc:Work
         rdf:about="">
        <dc:format>image/svg+xml</dc:format>
        <dc:type
           rdf:resource="http://purl.org/dc/dcmitype/StillImage" />
      </cc:Work>
    </rdf:RDF>
  </metadata>
  <g
     inkscape:label="Layer 1"
     inkscape:groupmode="layer"
     id="layer1">
    <path
       style="fill:#babdb6"
       d="M 3.4078539,0.47646618 116.76242,0.67830031 c 1.58383,0 2.99881,-0.23532079 2.99881,3.16004759 l -0.13878,37.3290691 -119.07511437,0 0,-37.4678351 c 0,-1.6739056 0.1620757,-3.22311572 2.86051827,-3.22311572 z"
       nodetypes="ccccccc"
       id="path3817_2_" />
    <path
       id="path5906_2_"
       cx="296.35416"
       ry="22.939548"
       cy="264.3577"
       type="arc"
       rx="22.939548"
       d="m 34.522229,19.575504 c 0.0052,7.529196 -6.096613,13.636272 -13.626652,13.641589 -7.530013,0.0043 -13.6387529,-6.09593 -13.6431164,-13.625073 0,-0.0058 0,-0.0107 0,-0.01652 -0.00434,-7.53015 6.0965864,-13.6372254 13.6266254,-13.6416144 7.530994,-0.00486 13.63878,6.0959554 13.643143,13.6250994 0,0.0049 0,0.01069 0,0.01651 z"
       style="fill:#eeeeec" />
    <g
       id="g5706_2_"
       transform="matrix(0.86749204,0,0,0.86739489,-379.11978,153.80009)"
       style="fill:#4e9a06">
      <path
         id="path5708_2_"
         d="m 473.88455,-167.54724 c 3.48541,3.48596 5.22839,7.75391 5.22839,12.80273 0,5.04938 -1.7128,9.27148 -5.13834,12.66736 -3.63531,3.5766 -7.93179,5.36432 -12.88947,5.36432 -4.89777,0 -9.11987,-1.77261 -12.6651,-5.31955 -3.54584,-3.54581 -5.31845,-7.78299 -5.31845,-12.71213 0,-4.92859 1.77261,-9.19598 5.31845,-12.80273 3.4552,-3.48651 7.67725,-5.22894 12.6651,-5.22894 5.04829,0 9.31401,1.74243 12.79942,5.22894 z m -23.11798,2.34485 c -2.94675,2.97638 -4.41956,6.46289 -4.41956,10.46234 0,3.99835 1.45828,7.4552 4.37424,10.37067 2.91653,2.9165 6.38849,4.37476 10.41705,4.37476 4.02853,0 7.53018,-1.47281 10.50656,-4.41901 2.8259,-2.73584 4.23941,-6.17706 4.23941,-10.32642 0,-4.11804 -1.43646,-7.61292 -4.30768,-10.48474 -2.87064,-2.87067 -6.34988,-4.30652 -10.43829,-4.30652 -4.08837,0 -7.54638,1.44318 -10.37173,4.32892 z m 7.75449,8.70312 c -0.45032,-0.98163 -1.12433,-1.47223 -2.02325,-1.47223 -1.58914,0 -2.38342,1.06952 -2.38342,3.2085 0,2.13959 0.79428,3.20911 2.38342,3.20911 1.04938,0 1.79895,-0.5213 2.24866,-1.56512 l 2.20276,1.17303 c -1.04993,1.86548 -2.62506,2.79901 -4.72549,2.79901 -1.6199,0 -2.91763,-0.4967 -3.89206,-1.48956 -0.97607,-0.99341 -1.46274,-2.36273 -1.46274,-4.10797 0,-1.71558 0.50229,-3.07709 1.50748,-4.08563 1.00519,-1.00793 2.25705,-1.51251 3.75781,-1.51251 2.22012,0 3.80984,0.87488 4.77081,2.62286 l -2.38398,1.22051 z m 10.36334,0 c -0.45087,-0.98163 -1.11148,-1.47223 -1.98239,-1.47223 -1.62106,0 -2.43213,1.06952 -2.43213,3.2085 0,2.13959 0.81107,3.20911 2.43213,3.20911 1.05103,0 1.78717,-0.5213 2.20724,-1.56512 l 2.25201,1.17303 c -1.04825,1.86548 -2.62119,2.79901 -4.71768,2.79901 -1.61771,0 -2.91263,-0.4967 -3.88647,-1.48956 -0.97217,-0.99341 -1.45938,-2.36273 -1.45938,-4.10797 0,-1.71558 0.49448,-3.07709 1.48288,-4.08563 0.98782,-1.00793 2.24527,-1.51251 3.77347,-1.51251 2.21619,0 3.80368,0.87488 4.76132,2.62286 l -2.431,1.22051 z"
         style="fill:#4e9a06" />
    </g>
    <path
       id="path294"
       d="m 117.75332,1.702416e-6 -115.5066392,0 C 1.0078536,1.702416e-6 9.7349798e-7,1.0082284 9.7349798e-7,2.2469168 l 0,39.2455792 c 0,0.279956 0.22709876650202,0.507507 0.50707660650202,0.507507 l 118.98536242,0 c 0.27999,0 0.50756,-0.227551 0.50756,-0.507507 L 120,2.2469267 C 120,1.0082284 118.99215,1.702416e-6 117.75332,1.702416e-6 z M 2.2466808,1.0150251 l 115.5066392,0 c 0.67934,0 1.23156,0.5526292 1.23156,1.2319016 0,0 0,15.8186503 0,27.2448843 l -82.557092,0 c -3.025983,5.470518 -8.855709,9.185133 -15.546258,9.185133 -6.693461,0 -12.5217365,-3.711217 -15.5462583,-9.185133 l -4.3210976,0 c 0,-11.426224 0,-27.2448843 0,-27.2448843 -1.99e-5,-0.6792724 0.5531681,-1.2319016 1.2325067,-1.2319016 z"
       style="fill:#2e3436" />
    <g
       id="g296"
       enable-background="new    "
       transform="matrix(0.9937807,0,0,0.9936694,-177.69409,-74.436409)"
       style="fill:#eeeeec">
      <path
         style="fill:#eeeeec"
         id="path298"
         d="m 265.60986,112.8833 c 0.0801,0.15576 0.1875,0.28174 0.32129,0.37842 0.13379,0.0962 0.29004,0.16797 0.46973,0.21436 0.18066,0.0469 0.36719,0.0703 0.55957,0.0703 0.12988,0 0.26953,-0.0107 0.41895,-0.0327 0.14844,-0.0215 0.28809,-0.064 0.41895,-0.12598 0.12988,-0.062 0.23926,-0.14795 0.3252,-0.25684 0.0879,-0.10889 0.13086,-0.24707 0.13086,-0.41553 0,-0.18018 -0.0576,-0.32617 -0.17285,-0.43848 -0.11426,-0.1123 -0.26562,-0.20508 -0.45215,-0.28027 -0.18555,-0.0742 -0.39746,-0.13965 -0.63281,-0.1958 -0.23633,-0.0562 -0.47559,-0.11816 -0.71777,-0.18701 -0.24902,-0.062 -0.49121,-0.13818 -0.72754,-0.22852 -0.23535,-0.0898 -0.44727,-0.20703 -0.63379,-0.3501 -0.18652,-0.14307 -0.33691,-0.32178 -0.45215,-0.53662 -0.11426,-0.21484 -0.17188,-0.47461 -0.17188,-0.7793 0,-0.34277 0.0732,-0.63965 0.21875,-0.8916 0.14648,-0.25195 0.33789,-0.46191 0.57422,-0.63037 0.23535,-0.16797 0.50293,-0.29248 0.80176,-0.37354 0.29785,-0.0806 0.59668,-0.12109 0.89453,-0.12109 0.34863,0 0.68262,0.0391 1.00293,0.11719 0.31934,0.0776 0.60449,0.2041 0.85254,0.37842 0.24902,0.17432 0.44629,0.39697 0.59277,0.66797 0.14551,0.271 0.21875,0.59961 0.21875,0.98535 l -1.42188,0 c -0.0127,-0.19922 -0.0547,-0.36426 -0.125,-0.49463 -0.0713,-0.13086 -0.16602,-0.2334 -0.2832,-0.30859 -0.11816,-0.0742 -0.25293,-0.12744 -0.4043,-0.1582 -0.15234,-0.0312 -0.31738,-0.0469 -0.49707,-0.0469 -0.11719,0 -0.23535,0.0127 -0.35254,0.0371 -0.11816,0.0254 -0.22461,0.0688 -0.32031,0.13086 -0.0967,0.0625 -0.17578,0.14014 -0.2373,0.2334 -0.0615,0.0937 -0.0928,0.21191 -0.0928,0.35498 0,0.13086 0.0244,0.23682 0.0742,0.31738 0.0498,0.0811 0.14844,0.15576 0.29395,0.22412 0.14551,0.0684 0.34766,0.13721 0.60547,0.20557 0.25781,0.0684 0.59473,0.15576 1.01172,0.26123 0.12402,0.0249 0.2959,0.0703 0.5166,0.13574 0.2207,0.0654 0.43945,0.16943 0.65723,0.3125 0.21777,0.14355 0.40527,0.33496 0.56445,0.57422 0.1582,0.23975 0.2373,0.54639 0.2373,0.91992 0,0.30518 -0.0596,0.58838 -0.17773,0.84961 -0.11816,0.26172 -0.29395,0.4873 -0.52734,0.67676 -0.2334,0.19043 -0.52246,0.33789 -0.86719,0.44385 -0.3457,0.10596 -0.74609,0.15869 -1.19922,0.15869 -0.36719,0 -0.72363,-0.0454 -1.06934,-0.13574 -0.34473,-0.0903 -0.65039,-0.23242 -0.91504,-0.42578 -0.26367,-0.19336 -0.47363,-0.43994 -0.62988,-0.73877 -0.15527,-0.29932 -0.22949,-0.65381 -0.22363,-1.06494 l 1.42188,0 c -3e-5,0.22412 0.04,0.41406 0.12106,0.56933 z" />
      <path
         style="fill:#eeeeec"
         id="path300"
         d="m 273.8667,107.8667 2.49316,6.66406 -1.52246,0 -0.50391,-1.48438 -2.49316,0 -0.52246,1.48438 -1.47461,0 2.52051,-6.66406 1.50293,0 z m 0.084,4.08594 -0.83984,-2.44336 -0.0186,0 -0.86914,2.44336 1.72753,0 z" />
    </g>
    <g
       id="g302"
       enable-background="new    "
       transform="matrix(0.9937807,0,0,0.9936694,-177.69409,-74.436409)"
       style="fill:#eeeeec">
      <path
         style="fill:#eeeeec"
         id="path304"
         d="m 239.17821,107.8667 c 0.31738,0 0.60742,0.0283 0.86914,0.084 0.26172,0.0561 0.48633,0.14795 0.67383,0.27539 0.18652,0.12744 0.33203,0.29688 0.43457,0.5083 0.10254,0.21142 0.1543,0.47266 0.1543,0.78369 0,0.33594 -0.0762,0.61523 -0.22949,0.83936 -0.15234,0.22412 -0.37891,0.40723 -0.67773,0.55029 0.41211,0.11816 0.71973,0.3252 0.92285,0.62109 0.20312,0.29589 0.30469,0.65234 0.30469,1.06934 0,0.33594 -0.0654,0.62695 -0.19629,0.87305 -0.13086,0.24561 -0.30762,0.44629 -0.52832,0.60205 -0.22168,0.15576 -0.47461,0.271 -0.75781,0.34521 -0.28418,0.0752 -0.5752,0.1123 -0.875,0.1123 l -3.23633,0 0,-6.66406 3.14159,0 0,1e-5 z m -0.1875,2.69531 c 0.26172,0 0.47656,-0.062 0.64551,-0.18604 0.16797,-0.12451 0.25195,-0.32568 0.25195,-0.60498 0,-0.15527 -0.0283,-0.28271 -0.084,-0.38184 -0.0566,-0.0996 -0.13086,-0.17676 -0.22461,-0.23291 -0.0937,-0.0557 -0.20117,-0.0947 -0.32227,-0.11621 -0.12207,-0.022 -0.24805,-0.0327 -0.37891,-0.0327 l -1.37305,0 0,1.55469 1.48536,0 z m 0.0859,2.82813 c 0.14355,0 0.28027,-0.0137 0.41113,-0.042 0.13086,-0.0278 0.24707,-0.0747 0.34668,-0.13965 0.0996,-0.0654 0.17871,-0.1543 0.23828,-0.26611 0.0596,-0.11181 0.0889,-0.25488 0.0889,-0.4292 0,-0.3418 -0.0967,-0.58594 -0.29004,-0.73193 -0.19336,-0.14599 -0.44922,-0.21924 -0.7666,-0.21924 l -1.59961,0 0,1.82812 1.57129,0 z" />
      <path
         style="fill:#eeeeec"
         id="path306"
         d="m 241.88914,107.8667 1.64355,0 1.56055,2.63184 1.55078,-2.63184 1.63379,0 -2.47363,4.10645 0,2.55762 -1.46875,0 0,-2.59473 -2.44629,-4.06934 z" />
    </g>
    <path
       id="path6318_1_"
       cx="475.97119"
       ry="29.209877"
       cy="252.08646"
       type="arc"
       rx="29.209877"
       d="m 102.40309,14.980755 c 0.004,5.84509 -4.731135,10.587333 -10.577357,10.591692 -5.845253,0.0043 -10.588027,-4.730604 -10.592878,-10.576153 0,-0.005 0,-0.01068 0,-0.01553 -0.0037,-5.8455492 4.732097,-10.5868421 10.577357,-10.5916924 5.846222,-0.00435 10.588988,4.7310955 10.592878,10.5761914 0,0.0056 0,0.01018 0,0.01553 z"
       style="fill:#eeeeec" />
    <g
       id="g6320_1_"
       transform="matrix(0.62110797,0,0,0.62103841,196.2253,45.651159)"
       style="fill:#4e9a06">
      <path
         id="path6322_1_"
         d="m -168.2204,-68.05536 c -5.17194,0 -9.54852,1.80469 -13.13135,5.41333 -3.67661,3.73444 -5.51413,8.1532 -5.51413,13.25635 0,5.10315 1.83752,9.49152 5.51413,13.1626 3.67502,3.67194 8.05316,5.50787 13.13135,5.50787 5.14066,0 9.59537,-1.85156 13.36728,-5.55475 3.55005,-3.51562 5.3266,-7.88831 5.3266,-13.11572 0,-5.22662 -1.8078,-9.64697 -5.42191,-13.25635 -3.61407,-3.60864 -8.03756,-5.41333 -13.27197,-5.41333 z m 0.0469,3.36017 c 4.23752,0 7.836,1.49298 10.79697,4.48053 2.98907,2.9563 4.48441,6.56567 4.48441,10.82898 0,4.29382 -1.46252,7.85712 -4.39224,10.68915 -3.08438,3.04926 -6.71411,4.57349 -10.88913,4.57349 -4.17505,0 -7.7735,-1.5094 -10.79541,-4.52661 -3.02188,-3.01953 -4.53284,-6.59692 -4.53284,-10.73602 0,-4.13831 1.52658,-7.74847 4.57971,-10.82898 2.92815,-2.98756 6.51098,-4.48054 10.74853,-4.48054 z"
         style="fill:#4e9a06" />
      <path
         id="path6324_1_"
         d="m -176.49548,-52.02087 c 0.74377,-4.69769 4.05161,-7.20862 8.1954,-7.20862 5.96097,0 9.59225,4.32501 9.59225,10.09229 0,5.62738 -3.86411,9.99927 -9.686,9.99927 -4.00473,0 -7.58914,-2.46484 -8.24228,-7.30084 l 4.70319,0 c 0.14062,2.51099 1.77032,3.39459 4.09845,3.39459 2.65317,0 4.37817,-2.4649 4.37817,-6.23291 0,-3.95233 -1.49063,-6.04535 -4.28598,-6.04535 -2.04846,0 -3.8172,0.74457 -4.19064,3.30157 l 1.36874,-0.007 -3.70316,3.7016 -3.7016,-3.7016 1.47346,0.007 z"
         style="fill:#4e9a06" />
    </g>
    <circle
       cx="242.56226"
       cy="90.224609"
       r="10.8064"
       id="circle315"
       sodipodi:cx="242.56226"
       sodipodi:cy="90.224609"
       sodipodi:rx="10.8064"
       sodipodi:ry="10.8064"
       style="fill:#eeeeec"
       d="m 253.36866,90.224609 c 0,5.96821 -4.83819,10.806401 -10.8064,10.806401 -5.96821,0 -10.8064,-4.838191 -10.8064,-10.806401 0,-5.96821 4.83819,-10.8064 10.8064,-10.8064 5.96821,0 10.8064,4.83819 10.8064,10.8064 z"
       transform="matrix(0.9937807,0,0,0.9936694,-177.69409,-74.436409)" />
    <g
       id="g317"
       transform="matrix(0.9937807,0,0,0.9936694,-177.69409,-74.436409)"
       style="fill:#4e9a06">
      <path
         d="m 245.68994,87.09766 c 0,-0.4165 -0.33789,-0.75342 -0.75391,-0.75342 l -4.77246,0 c -0.41602,0 -0.75391,0.33691 -0.75391,0.75342 l 0,4.77295 1.33105,0 0,5.65234 3.61719,0 0,-5.65234 1.33203,0 0,-4.77295 1e-5,0 z"
         id="path319"
         style="fill:#4e9a06" />
      <circle
         cx="242.5498"
         cy="84.083008"
         r="1.63232"
         id="circle321"
         sodipodi:cx="242.5498"
         sodipodi:cy="84.083008"
         sodipodi:rx="1.63232"
         sodipodi:ry="1.63232"
         d="m 244.18212,84.083008 c 0,0.901505 -0.73081,1.63232 -1.63232,1.63232 -0.9015,0 -1.63232,-0.730815 -1.63232,-1.63232 0,-0.901506 0.73082,-1.63232 1.63232,-1.63232 0.90151,0 1.63232,0.730814 1.63232,1.63232 z"
         style="fill:#4e9a06" />
    </g>
    <path
       clip-rule="evenodd"
       d="m 63.332184,3.3861488 c -3.211353,0 -5.931141,1.1203026 -8.156475,3.3623686 -2.283559,2.3182406 -3.424856,5.0629546 -3.424856,8.2317366 0,3.168781 1.141297,5.894576 3.424856,8.174967 2.283559,2.279905 5.002871,3.420101 8.156475,3.420101 3.192908,0 5.960746,-1.149417 8.301567,-3.449702 2.206889,-2.182873 3.309369,-4.898482 3.309369,-8.145376 0,-3.246895 -1.121889,-5.9906444 -3.366631,-8.2317366 -2.244741,-2.242056 -4.993171,-3.3623586 -8.244305,-3.3623586 z m 0.02912,2.0863182 c 2.631968,0 4.867001,0.9276798 6.705108,2.7830494 1.858489,1.8354766 2.787247,4.0775426 2.787247,6.7247376 0,2.666601 -0.909349,4.880039 -2.729012,6.638367 -1.91574,1.893695 -4.170192,2.840305 -6.763333,2.840305 -2.593142,0 -4.828184,-0.936902 -6.704621,-2.811677 -1.877898,-1.874289 -2.815878,-4.096462 -2.815878,-6.666995 0,-2.570057 0.948166,-4.811636 2.844499,-6.7247376 1.819185,-1.8553696 4.044995,-2.7830494 6.67599,-2.7830494 z"
       id="path323"
       style="fill-rule:evenodd;fill:#4e9a06" />
  </g>
</svg>
