<?xml version="1.0" encoding="UTF-8" standalone="no"?>
<!-- Generator: Adobe Illustrator 13.0.2, SVG Export Plug-In . SVG Version: 6.00 Build 14948)  -->

<svg
   xmlns:dc="http://purl.org/dc/elements/1.1/"
   xmlns:cc="http://creativecommons.org/ns#"
   xmlns:rdf="http://www.w3.org/1999/02/22-rdf-syntax-ns#"
   xmlns:svg="http://www.w3.org/2000/svg"
   xmlns="http://www.w3.org/2000/svg"
   xmlns:sodipodi="http://sodipodi.sourceforge.net/DTD/sodipodi-0.dtd"
   xmlns:inkscape="http://www.inkscape.org/namespaces/inkscape"
   version="1.0"
   id="Layer_1"
   x="0px"
   y="0px"
   width="64"
   height="64"
   viewBox="5.5 -3.5 64 64"
   enable-background="new 5.5 -3.5 64 64"
   xml:space="preserve"
   inkscape:version="0.48.2 r9819"
   sodipodi:docname="by.svg"><metadata
   id="metadata15"><rdf:RDF><cc:Work
       rdf:about=""><dc:format>image/svg+xml</dc:format><dc:type
         rdf:resource="http://purl.org/dc/dcmitype/StillImage" /></cc:Work></rdf:RDF></metadata><defs
   id="defs13" /><sodipodi:namedview
   pagecolor="#ffffff"
   bordercolor="#666666"
   borderopacity="1"
   objecttolerance="10"
   gridtolerance="10"
   guidetolerance="10"
   inkscape:pageopacity="0"
   inkscape:pageshadow="2"
   inkscape:window-width="1680"
   inkscape:window-height="975"
   id="namedview11"
   showgrid="false"
   showborder="false"
   inkscape:showpageshadow="false"
   inkscape:zoom="3.875"
   inkscape:cx="32"
   inkscape:cy="32.258065"
   inkscape:window-x="0"
   inkscape:window-y="24"
   inkscape:window-maximized="1"
   inkscape:current-layer="Layer_1" />
<path
   sodipodi:type="arc"
   style="color:#000000;fill:#eeeeec;fill-opacity:1;fill-rule:evenodd;stroke:#eeeeec;stroke-width:8;stroke-miterlimit:4;stroke-dasharray:none;stroke-dashoffset:0;marker:none;visibility:visible;display:inline;overflow:visible;enable-background:accumulate"
   id="path2827"
   sodipodi:cx="40.645161"
   sodipodi:cy="46.451614"
   sodipodi:rx="29.290323"
   sodipodi:ry="29.67742"
   d="m 69.935484,46.451614 a 29.290323,29.67742 0 1 1 -58.580647,0 29.290323,29.67742 0 1 1 58.580647,0 z"
   transform="matrix(0.91026158,0,0,0.92012773,0.50227125,-14.628514)" /><path
   d="m 37.443,-3.5 c 8.988,0 16.57,3.08500002 22.742,9.257 6.208,6.21 9.315,13.791 9.315,22.743 0,8.991 -3.049,16.476 -9.145,22.456001 C 53.879,57.319001 46.242,60.5 37.443,60.5 28.794,60.5 21.29,57.356 14.929,51.07 8.644,44.784 5.5,37.262 5.5,28.5 5.5,19.739 8.644,12.158001 14.929,5.758 21.101,-0.41499998 28.604,-3.5 37.443,-3.5 z m 0.114,5.772 C 30.281,2.272 24.129,4.825 19.1,9.9290005 13.88,15.263 11.271,21.454 11.271,28.501 c 0,7.086 2.59,13.22 7.77,18.398 5.181,5.182001 11.352,7.771 18.514,7.771 7.123,0 13.334,-2.607 18.629,-7.828 5.029,-4.838 7.543,-10.952 7.543,-18.343 0,-7.276 -2.553,-13.465 -7.656,-18.5709995 C 50.967,4.824 44.795,2.272 37.557,2.272 z m 8.572,18.285 V 33.642 H 42.473 V 49.184 H 32.529 V 33.643 H 28.873 V 20.557 c 0,-0.571999 0.2,-1.056999 0.599,-1.457 0.401,-0.399 0.887,-0.6 1.457,-0.6 h 13.144 c 0.533,0 1.01,0.2 1.428,0.6 0.417,0.4 0.628,0.886 0.628,1.457 z M 33.042,12.329 c 0,-3.008 1.485,-4.514 4.458,-4.514 2.973,0 4.457,1.504 4.457,4.514 0,2.971 -1.486,4.457 -4.457,4.457 -2.971,0 -4.458,-1.486 -4.458,-4.457 z"
   id="path9"
   style="fill:#4e9a06" />
</svg>