<?xml version="1.0" encoding="UTF-8" standalone="no"?>
<!-- Created with Inkscape (http://www.inkscape.org/) -->

<svg
   xmlns:dc="http://purl.org/dc/elements/1.1/"
   xmlns:cc="http://creativecommons.org/ns#"
   xmlns:rdf="http://www.w3.org/1999/02/22-rdf-syntax-ns#"
   xmlns:svg="http://www.w3.org/2000/svg"
   xmlns="http://www.w3.org/2000/svg"
   xmlns:xlink="http://www.w3.org/1999/xlink"
   xmlns:sodipodi="http://sodipodi.sourceforge.net/DTD/sodipodi-0.dtd"
   xmlns:inkscape="http://www.inkscape.org/namespaces/inkscape"
   width="301.41632"
   height="270.24902"
   id="svg2"
   sodipodi:version="0.32"
   inkscape:version="0.48.2 r9819"
   sodipodi:docname="capodastre.svg"
   inkscape:output_extension="org.inkscape.output.svg.inkscape"
   version="1.0">
  <defs
     id="defs4">
    <linearGradient
       id="linearGradient4208-7">
      <stop
         style="stop-color:#d3d7cf;stop-opacity:1;"
         offset="0"
         id="stop4210-6" />
      <stop
         id="stop4216-4"
         offset="0.5"
         style="stop-color:#d3d7cf;stop-opacity:0.49803922;" />
      <stop
         style="stop-color:#d3d7cf;stop-opacity:0;"
         offset="1"
         id="stop4212-7" />
    </linearGradient>
    <linearGradient
       inkscape:collect="always"
       id="linearGradient4264-7">
      <stop
         style="stop-color:#ce5c00;stop-opacity:0.18978103;"
         offset="0"
         id="stop4266-7" />
      <stop
         id="stop4274-6"
         offset="0.04529195"
         style="stop-color:#ce5c00;stop-opacity:0.65490196;" />
      <stop
         id="stop4272-2"
         offset="0.5"
         style="stop-color:#ce5c00;stop-opacity:1;" />
      <stop
         style="stop-color:#ce5c00;stop-opacity:1"
         offset="1"
         id="stop4268-2" />
    </linearGradient>
    <linearGradient
       inkscape:collect="always"
       id="linearGradient4096-0">
      <stop
         style="stop-color:#888a85;stop-opacity:1;"
         offset="0"
         id="stop4098-0" />
      <stop
         style="stop-color:#888a85;stop-opacity:0;"
         offset="1"
         id="stop4100-0" />
    </linearGradient>
    <linearGradient
       id="linearGradient4136-7">
      <stop
         style="stop-color:#888a85;stop-opacity:1;"
         offset="0"
         id="stop4138-0" />
      <stop
         style="stop-color:#888a85;stop-opacity:0;"
         offset="1"
         id="stop4140-6" />
    </linearGradient>
    <linearGradient
       inkscape:collect="always"
       xlink:href="#linearGradient4136-7"
       id="linearGradient4594"
       gradientUnits="userSpaceOnUse"
       gradientTransform="translate(57.187979,416.51405)"
       x1="139.24814"
       y1="148.48941"
       x2="194.34111"
       y2="305.30725" />
    <linearGradient
       inkscape:collect="always"
       xlink:href="#linearGradient4096-0"
       id="linearGradient4596"
       gradientUnits="userSpaceOnUse"
       gradientTransform="matrix(0.9219968,0,0,0.9219968,68.318581,431.77793)"
       x1="291.38043"
       y1="12.497697"
       x2="359.49289"
       y2="313.4053" />
    <linearGradient
       inkscape:collect="always"
       xlink:href="#linearGradient4264-7"
       id="linearGradient4598"
       gradientUnits="userSpaceOnUse"
       gradientTransform="translate(57.187979,416.51405)"
       x1="18.029827"
       y1="143.94373"
       x2="315.51974"
       y2="84.344727" />
    <linearGradient
       inkscape:collect="always"
       xlink:href="#linearGradient4208-7"
       id="linearGradient4600"
       gradientUnits="userSpaceOnUse"
       x1="389.55643"
       y1="257.24625"
       x2="389.28571"
       y2="282.36218" />
  </defs>
  <sodipodi:namedview
     id="base"
     pagecolor="#ffffff"
     bordercolor="#666666"
     borderopacity="1.0"
     inkscape:pageopacity="0.0"
     inkscape:pageshadow="2"
     inkscape:zoom="1.4"
     inkscape:cx="194.17453"
     inkscape:cy="197.24596"
     inkscape:document-units="px"
     inkscape:current-layer="layer1"
     showgrid="false"
     inkscape:window-width="1680"
     inkscape:window-height="976"
     inkscape:window-x="0"
     inkscape:window-y="25"
     inkscape:snap-center="false"
     inkscape:snap-object-midpoints="true"
     inkscape:window-maximized="1"
     borderlayer="false"
     showborder="false"
     inkscape:showpageshadow="false" />
  <metadata
     id="metadata7">
    <rdf:RDF>
      <cc:Work
         rdf:about="">
        <dc:format>image/svg+xml</dc:format>
        <dc:type
           rdf:resource="http://purl.org/dc/dcmitype/StillImage" />
      </cc:Work>
    </rdf:RDF>
  </metadata>
  <g
     inkscape:label="Calque 1"
     inkscape:groupmode="layer"
     id="layer1"
     transform="translate(-81.643273,-443.30076)">
    <g
       id="g4576">
      <path
         sodipodi:nodetypes="ccccccc"
         id="path3251-1"
         d="m 100.90317,548.47876 c -5.263051,1.17607 -3.048885,-1.92685 -3.491379,-2.60482 -1.006646,-0.0796 -2.758421,-0.24288 -5.014317,-0.34098 -2.026364,-0.50612 -6.691272,-3.89135 -0.799804,-8.93264 l 177.72947,-60.21137 c 5.67085,1.39509 9.17634,6.45627 10.49432,12.6395 -49.69638,12.54822 -173.79352,57.94294 -178.91829,59.45031 z"
         style="fill:#fcaf3e;fill-rule:evenodd;stroke:#2e3436;stroke-width:1px;stroke-linecap:butt;stroke-linejoin:miter;stroke-opacity:1" />
      <path
         sodipodi:nodetypes="cccc"
         id="path3267-6"
         d="m 314.37156,514.0032 c 5.58399,2.23709 20.94075,-2.6281 19.20925,-6.98518 l 0.23284,-5.64635 -19.44209,12.63153 z"
         style="fill:#555753;fill-rule:evenodd;stroke:#2e3436;stroke-width:1px;stroke-linecap:butt;stroke-linejoin:miter;stroke-opacity:1" />
      <path
         sodipodi:nodetypes="cscc"
         id="path3259-8"
         d="m 258.3857,560.22324 c 7.24482,-1.15572 32.5238,-19.82231 44.36559,-35.56108 7.90094,-10.50103 4.54736,-12.07788 -1.51345,-12.52168 l -42.85214,48.08276 z"
         style="fill:#888a85;fill-rule:evenodd;stroke:#2e3436;stroke-width:1px;stroke-linecap:butt;stroke-linejoin:miter;stroke-opacity:1" />
      <path
         sodipodi:nodetypes="cccc"
         id="path3263-6"
         d="m 314.86895,513.82703 c -1.26406,6.83613 -2.25176,14.19043 -6.91497,14.65316 -4.35456,-0.0697 -4.23037,-5.89774 -2.46964,-13.82994 l 9.38461,-0.82322 z"
         style="fill:#888a85;fill-rule:evenodd;stroke:#2e3436;stroke-width:1px;stroke-linecap:butt;stroke-linejoin:miter;stroke-opacity:1" />
      <path
         sodipodi:nodetypes="cscccc"
         id="path3247-0"
         d="m 160.10521,691.31142 c 12.49777,3.46358 31.49768,-36.81936 36.83564,-48.53387 5.01336,-11.00214 30.4489,-43.46725 9.86655,-83.3578 -9.62411,0.1379 -25.11961,-2.61433 -19.66085,10.93058 l 10.24494,33.52886 -37.28628,87.43223 z"
         style="fill:url(#linearGradient4594);fill-opacity:1;fill-rule:evenodd;stroke:#2e3436;stroke-width:1px;stroke-linecap:butt;stroke-linejoin:miter;stroke-opacity:1" />
      <path
         sodipodi:nodetypes="cccccc"
         id="path3249-7"
         d="m 313.56176,448.22265 c 38.77054,-17.04646 46.49301,20.66446 46.56446,21.01718 -0.69357,65.70699 -0.0576,85.43265 0.25281,129.05122 l -15.83307,9.31357 -1.26064,-130.58293 c -13.03059,-32.14496 -20.63988,-21.91425 -29.72356,-28.79904 z"
         style="fill:url(#linearGradient4596);fill-opacity:1;fill-rule:evenodd;stroke:#2e3436;stroke-width:1px;stroke-linecap:butt;stroke-linejoin:miter;stroke-opacity:1" />
      <path
         sodipodi:nodetypes="cscc"
         id="path3265-6"
         d="m 313.05789,513.50774 c -0.64272,9.23335 -3.84612,15.42982 -6.461,13.94141 -2.09668,-1.19345 -1.86293,-7.35419 -0.71849,-13.06653 l 7.17949,-0.87488 z"
         style="fill:#d3d7cf;fill-rule:evenodd;stroke:#2e3436;stroke-width:1px;stroke-linecap:butt;stroke-linejoin:miter;stroke-opacity:1" />
      <path
         sodipodi:nodetypes="cccccc"
         id="path3255-6"
         d="m 344.7905,608.1833 c 9.98497,22.97383 19.47525,41.82012 18.92333,63.24756 -2.12814,13.58583 -0.21617,21.86648 -5.88433,40.56569 3.75891,0.94847 5.2533,1.55935 8.5751,-2.73757 19.13155,-29.42293 2.34855,-65.5443 -16.43515,-103.98275 -2.35557,0.7495 -4.57926,2.15757 -5.17895,2.90707 z"
         style="fill:#fcaf3e;fill-rule:evenodd;stroke:#2e3436;stroke-width:1px;stroke-linecap:butt;stroke-linejoin:miter;stroke-opacity:1" />
      <path
         sodipodi:nodetypes="ccccc"
         id="path3257-0"
         d="m 362.9568,597.79713 -13.07209,7.28621 c 17.83126,42.75963 27.58744,72.50031 16.41511,103.30638 0.076,7.2569 20.38918,-26.07489 15.50043,-50.95748 -2.02089,-15.85479 -8.93018,-36.32641 -18.84345,-59.63511 z"
         style="fill:#ce5c00;fill-rule:evenodd;stroke:#2e3436;stroke-width:1px;stroke-linecap:butt;stroke-linejoin:miter;stroke-opacity:1" />
      <path
         id="path3269-8"
         d="m 345.57475,606.76761 4.52766,-1.97571 12.75978,-7.24426 -2.38732,0.49393 -14.90012,8.72604 z"
         style="fill:#ce5c00;fill-rule:evenodd;stroke:#2e3436;stroke-width:1px;stroke-linecap:butt;stroke-linejoin:miter;stroke-opacity:1" />
      <path
         sodipodi:nodetypes="ccccc"
         id="path3271-0"
         d="m 97.190659,545.78578 c -0.05205,3.66172 1.176256,3.16234 2.328392,2.91049 7.315219,-2.05686 119.989889,-43.31056 179.751989,-58.67553 l -1.39704,-5.82098 c -69.84915,19.80499 -164.07834,54.98193 -180.683341,61.58602 z"
         style="fill:url(#linearGradient4598);fill-opacity:1;fill-rule:evenodd;stroke:#2e3436;stroke-width:1px;stroke-linecap:butt;stroke-linejoin:miter;stroke-opacity:1" />
      <path
         sodipodi:nodetypes="ccccccc"
         id="path3253-4"
         d="m 158.60375,531.6425 c -4.83248,0.14813 -4.14114,12.70054 -4.05471,13.0955 l 98.87399,10.96968 41.43655,-49.21184 c -2.70507,-0.18538 -6.69283,-1.36358 -8.79867,0.25424 -10.84482,12.65061 -15.74533,17.01725 -30.18195,32.8606 -16.08304,-0.78903 -56.72049,-0.17668 -97.27521,-7.96818 z"
         style="fill:#fcaf3e;fill-rule:evenodd;stroke:#2e3436;stroke-width:1px;stroke-linecap:butt;stroke-linejoin:miter;stroke-opacity:1" />
      <path
         sodipodi:nodetypes="ccccc"
         id="path3273-8"
         d="m 157.72889,531.23331 c -1.53438,0.91635 -2.94804,2.2552 -3.25975,7.45087 35.0582,2.86002 72.00296,7.9593 99.65524,5.12246 5.16231,-6.4613 3.2177,-5.96001 1.39704,-4.65678 -24.33548,-1.12711 -55.71601,1.03035 -97.79253,-7.91655 z"
         style="fill:#ce5c00;fill-rule:evenodd;stroke:#2e3436;stroke-width:1px;stroke-linecap:butt;stroke-linejoin:miter;stroke-opacity:1" />
      <path
         sodipodi:nodetypes="cccccccccccccccccccccccccccc"
         id="path2473-9"
         d="m 82.229408,540.99302 c -4.226609,-14.57594 148.112912,-71.65501 232.513112,-93.1162 6.92896,1.4561 17.08926,0.11498 29.33775,29.80344 1.54805,4.67419 -1.15234,129.50786 1.39704,130.39005 16.76409,26.4697 26.60481,74.1 12.16172,103.63005 -1.33075,1.9484 -9.00147,2.54249 -9.36764,-3.50913 -1.12161,-9.37894 0.97572,-27.60367 9.97214,-45.33064 0.62025,-8.07751 -18.98073,-41.8212 -29.50909,-64.79401 1.04241,-5.48162 6.23732,-8.41528 8.36066,-11.4175 -0.86071,2.89508 -2.67227,-79.93113 -4.19111,-82.89081 -3.66187,9.12963 -30.17064,13.97534 -31.66615,8.84789 1.21067,2.96309 -33.81105,43.16498 -44.36217,48.74132 -17.12469,6.35114 -74.08046,-13.40307 -68.79776,9.9342 4.17329,4.43543 8.2929,14.96024 10.7106,28.17357 -3.80193,29.33775 -20.65532,58.58275 -34.06457,87.20622 -5.38951,8.2917 -9.4477,3.57163 -8.77786,-4.08257 l 30.73479,-71.24885 c 5.42375,-24.01896 -5.69433,-43.90248 -35.39158,-59.1412 l 2.3284,-7.45085 85.68488,8.38222 19.09283,-5.58815 34.68136,-41.83118 -4.5321,-3.516 c -2.20085,2.59433 -4.88139,2.29934 -6.74306,-0.16707 -2.861,-8.93665 -2.47897,-22.54508 -12.53096,-24.69024 l -173.8628,59.0282 c -6.293403,2.07224 -9.189273,4.27222 -3.040642,9.18211 -3.306226,-1.00557 -6.831565,0.49029 -10.13779,-4.54487 z"
         style="fill:#eeeeec;fill-rule:evenodd;stroke:#2e3436;stroke-width:1px;stroke-linecap:butt;stroke-linejoin:miter;stroke-opacity:1" />
      <path
         d="m 416.42856,282.36218 c 0,14.20161 -12.15227,25.71429 -27.14285,25.71429 -14.99059,0 -27.14286,-11.51268 -27.14286,-25.71429 0,-14.2016 12.15227,-25.71428 27.14286,-25.71428 14.99058,0 27.14285,11.51268 27.14285,25.71428 z"
         sodipodi:ry="25.714285"
         sodipodi:rx="27.142857"
         sodipodi:cy="282.36218"
         sodipodi:cx="389.28571"
         id="path2475-2"
         style="fill:#babdb6;fill-opacity:1;fill-rule:nonzero;stroke:#2e3436;stroke-width:0.50460911;stroke-linecap:round;stroke-linejoin:round;stroke-miterlimit:4;stroke-opacity:1;stroke-dasharray:none;stroke-dashoffset:0"
         sodipodi:type="arc"
         transform="matrix(0.97052297,0,0,1.0116354,-71.009231,199.69635)" />
      <path
         d="m 416.42856,282.36218 c 0,14.20161 -12.15227,25.71429 -27.14285,25.71429 -14.99059,0 -27.14286,-11.51268 -27.14286,-25.71429 0,-14.2016 12.15227,-25.71428 27.14286,-25.71428 14.99058,0 27.14285,11.51268 27.14285,25.71428 z"
         sodipodi:ry="25.714285"
         sodipodi:rx="27.142857"
         sodipodi:cy="282.36218"
         sodipodi:cx="389.28571"
         id="path3277-4"
         style="fill:url(#linearGradient4600);fill-opacity:1;fill-rule:nonzero;stroke:#2e3436;stroke-width:0.53474259;stroke-linecap:round;stroke-linejoin:round;stroke-miterlimit:4;stroke-opacity:1;stroke-dasharray:none;stroke-dashoffset:0"
         sodipodi:type="arc"
         transform="matrix(0.90986526,0,0,0.96088939,-47.396051,214.0251)" />
    </g>
  </g>
</svg>
