<?xml version="1.0" encoding="UTF-8" standalone="no"?>
<!-- Created with Inkscape (http://www.inkscape.org/) -->
<svg
   xmlns:dc="http://purl.org/dc/elements/1.1/"
   xmlns:cc="http://creativecommons.org/ns#"
   xmlns:rdf="http://www.w3.org/1999/02/22-rdf-syntax-ns#"
   xmlns:svg="http://www.w3.org/2000/svg"
   xmlns="http://www.w3.org/2000/svg"
   xmlns:sodipodi="http://sodipodi.sourceforge.net/DTD/sodipodi-0.dtd"
   xmlns:inkscape="http://www.inkscape.org/namespaces/inkscape"
   width="326.83228"
   height="293.02814"
   id="svg2"
   sodipodi:version="0.32"
   inkscape:version="0.46"
   sodipodi:docname="capodastre.svg"
   inkscape:output_extension="org.inkscape.output.svg.inkscape"
   version="1.0">
  <defs
     id="defs4">
    <inkscape:perspective
       sodipodi:type="inkscape:persp3d"
       inkscape:vp_x="0 : 526.18109 : 1"
       inkscape:vp_y="0 : 1000 : 0"
       inkscape:vp_z="744.09448 : 526.18109 : 1"
       inkscape:persp3d-origin="372.04724 : 350.78739 : 1"
       id="perspective10" />
    <inkscape:perspective
       id="perspective2467"
       inkscape:persp3d-origin="372.04724 : 350.78739 : 1"
       inkscape:vp_z="744.09448 : 526.18109 : 1"
       inkscape:vp_y="0 : 1000 : 0"
       inkscape:vp_x="0 : 526.18109 : 1"
       sodipodi:type="inkscape:persp3d" />
  </defs>
  <sodipodi:namedview
     id="base"
     pagecolor="#ffffff"
     bordercolor="#666666"
     borderopacity="1.0"
     inkscape:pageopacity="0.0"
     inkscape:pageshadow="2"
     inkscape:zoom="0.7"
     inkscape:cx="296.06598"
     inkscape:cy="204.2795"
     inkscape:document-units="px"
     inkscape:current-layer="layer1"
     showgrid="false"
     inkscape:window-width="1022"
     inkscape:window-height="747"
     inkscape:window-x="0"
     inkscape:window-y="19" />
  <metadata
     id="metadata7">
    <rdf:RDF>
      <cc:Work
         rdf:about="">
        <dc:format>image/svg+xml</dc:format>
        <dc:type
           rdf:resource="http://purl.org/dc/dcmitype/StillImage" />
      </cc:Work>
    </rdf:RDF>
  </metadata>
  <g
     inkscape:label="Calque 1"
     inkscape:groupmode="layer"
     id="layer1"
     transform="translate(-14.494294,-12.539998)">
    <g
       id="g3279"
       transform="matrix(0.9219968,0,0,0.9219968,11.130602,15.263875)">
      <path
         sodipodi:nodetypes="ccccccc"
         id="path3251"
         d="M 35.341327,126.574 C 29.633007,127.84957 32.034497,124.48414 31.554567,123.74881 C 30.462757,123.66251 28.562777,123.48538 26.116027,123.37898 C 23.918227,122.83004 18.858657,119.15841 25.248557,113.69062 L 218.01438,48.385222 C 224.16499,49.898342 227.96706,55.387712 229.39654,62.094062 C 175.49573,75.703882 40.899667,124.93911 35.341327,126.574 z"
         style="fill:#fcaf3e;fill-rule:evenodd;stroke:#2e3436;stroke-width:1.08460248px;stroke-linecap:butt;stroke-linejoin:miter;stroke-opacity:1" />
      <path
         sodipodi:nodetypes="cccc"
         id="path3267"
         d="M 266.86967,89.181729 C 272.92608,91.608089 289.58205,86.331292 287.70407,81.605592 L 287.95661,75.481542 L 266.86967,89.181729 z"
         style="fill:#555753;fill-rule:evenodd;stroke:#2e3436;stroke-width:1.08460248px;stroke-linecap:butt;stroke-linejoin:miter;stroke-opacity:1" />
      <path
         sodipodi:nodetypes="cscc"
         id="path3259"
         d="M 206.14726,139.31209 C 214.00501,138.0586 241.42266,117.81277 254.26629,100.74247 C 262.83567,89.353019 259.19837,87.642772 252.6248,87.161422 L 206.14726,139.31209 z"
         style="fill:#888a85;fill-rule:evenodd;stroke:#2e3436;stroke-width:1.08460248px;stroke-linecap:butt;stroke-linejoin:miter;stroke-opacity:1" />
      <path
         sodipodi:nodetypes="cccc"
         id="path3263"
         d="M 267.40914,88.990659 C 266.03813,96.405149 264.96687,104.38164 259.90914,104.88352 C 255.18618,104.80794 255.32087,98.486809 257.23057,89.883519 L 267.40914,88.990659 z"
         style="fill:#888a85;fill-rule:evenodd;stroke:#2e3436;stroke-width:1.08460248px;stroke-linecap:butt;stroke-linejoin:miter;stroke-opacity:1" />
      <path
         sodipodi:nodetypes="cscccc"
         id="path3247"
         d="M 99.551998,281.49066 C 113.10712,285.24726 133.71446,241.55629 139.50403,228.8507 C 144.94153,216.91775 171.17323,182.86809 148.84956,139.6027 C 138.41123,139.75227 122.96052,135.60512 128.88111,150.29596 L 139.99279,186.66145 L 99.551998,281.49066 z"
         style="fill:#888a85;fill-rule:evenodd;stroke:#2e3436;stroke-width:1.08460248px;stroke-linecap:butt;stroke-linejoin:miter;stroke-opacity:1" />
      <path
         sodipodi:nodetypes="cccccc"
         id="path3249"
         d="M 265.99136,17.835986 C 308.04198,-0.65264354 316.41779,40.248713 316.49528,40.631267 C 315.74304,111.89723 316.43276,133.29173 316.76948,180.60054 L 299.59689,190.70206 L 298.2296,49.071492 C 284.09659,14.20699 275.84354,25.303246 265.99136,17.835986 z"
         style="fill:#888a85;fill-rule:evenodd;stroke:#2e3436;stroke-width:1.08460248px;stroke-linecap:butt;stroke-linejoin:miter;stroke-opacity:1" />
      <path
         sodipodi:nodetypes="cscc"
         id="path3265"
         d="M 265.44486,88.644359 C 264.74776,98.658869 261.27335,105.37958 258.43724,103.76525 C 256.16317,102.47083 256.4167,95.788879 257.65796,89.593249 L 265.44486,88.644359 z"
         style="fill:#d3d7cf;fill-rule:evenodd;stroke:#2e3436;stroke-width:1.08460248px;stroke-linecap:butt;stroke-linejoin:miter;stroke-opacity:1" />
      <path
         sodipodi:nodetypes="cccccc"
         id="path3255"
         d="M 299.86212,191.32969 C 310.69185,216.24717 320.98503,236.6879 320.38641,259.92815 C 318.07823,274.66338 320.15196,283.64459 314.00425,303.9258 C 318.08118,304.95451 319.702,305.61708 323.30483,300.95662 C 344.05496,269.04444 325.85207,229.86712 305.47923,188.17668 C 302.92437,188.98959 300.51255,190.51678 299.86212,191.32969 z"
         style="fill:#fcaf3e;fill-rule:evenodd;stroke:#2e3436;stroke-width:1.08460248px;stroke-linecap:butt;stroke-linejoin:miter;stroke-opacity:1" />
      <path
         sodipodi:nodetypes="ccccc"
         id="path3257"
         d="M 319.56534,180.06483 L 305.38732,187.96747 C 324.72714,234.34467 335.30872,266.60148 323.19119,300.01382 C 323.27354,307.88468 345.30534,271.73293 340.00299,244.74522 C 337.81113,227.54907 330.31729,205.3455 319.56534,180.06483 z"
         style="fill:#ce5c00;fill-rule:evenodd;stroke:#2e3436;stroke-width:1.08460248px;stroke-linecap:butt;stroke-linejoin:miter;stroke-opacity:1" />
      <path
         id="path3269"
         d="M 300.71272,189.79423 L 305.62343,187.65137 L 319.46272,179.79423 L 316.87343,180.32995 L 300.71272,189.79423 z"
         style="fill:#ce5c00;fill-rule:evenodd;stroke:#2e3436;stroke-width:1.08460248px;stroke-linecap:butt;stroke-linejoin:miter;stroke-opacity:1" />
      <path
         sodipodi:nodetypes="ccccc"
         id="path3271"
         d="M 31.314727,123.65319 C 31.258277,127.6247 32.590497,127.08307 33.840107,126.80991 C 41.774207,124.57904 163.98143,79.835182 228.79956,63.170302 L 227.28432,56.856852 C 151.52576,78.337392 49.324547,116.49038 31.314727,123.65319 z"
         style="fill:#ce5c00;fill-rule:evenodd;stroke:#2e3436;stroke-width:1.08460248px;stroke-linecap:butt;stroke-linejoin:miter;stroke-opacity:1" />
      <path
         sodipodi:nodetypes="ccccccc"
         id="path3253"
         d="M 97.923518,108.31335 C 92.682198,108.47401 93.432028,122.08839 93.525768,122.51676 L 200.76474,134.41451 L 245.70692,81.039232 C 242.773,80.838172 238.44786,79.560292 236.16386,81.314982 C 224.40155,95.035869 219.08644,99.771939 203.42845,116.95566 C 185.98474,116.09988 141.90927,116.76403 97.923518,108.31335 z"
         style="fill:#fcaf3e;fill-rule:evenodd;stroke:#2e3436;stroke-width:1.08460248px;stroke-linecap:butt;stroke-linejoin:miter;stroke-opacity:1" />
      <path
         sodipodi:nodetypes="ccccc"
         id="path3273"
         d="M 96.974638,107.86955 C 95.310448,108.86342 93.777188,110.31554 93.439108,115.95078 C 131.46332,119.05276 171.53369,124.58345 201.52543,121.50661 C 207.12448,114.49867 205.01535,115.04237 203.04066,116.45585 C 176.64634,115.23339 142.61094,117.57337 96.974638,107.86955 z"
         style="fill:#ce5c00;fill-rule:evenodd;stroke:#2e3436;stroke-width:1.08460248px;stroke-linecap:butt;stroke-linejoin:miter;stroke-opacity:1" />
      <path
         sodipodi:nodetypes="cccccccccccsccccccccccccccccc"
         id="path2473"
         d="M 15.087717,118.45495 C 10.503527,102.64586 175.73135,40.73776 267.27201,17.4609 C 274.78718,19.040187 285.80706,17.5856 299.09181,49.785782 C 300.77083,54.855422 297.84197,190.25032 300.60704,191.20714 C 318.78941,219.91625 329.46268,271.57619 313.79767,303.60455 C 312.35434,305.71779 304.03465,306.36214 303.6375,299.79854 C 302.421,289.62612 304.69577,269.85953 314.45331,250.63282 C 315.12604,241.87193 293.86677,205.27344 282.44768,180.35707 C 283.57828,174.41169 289.21269,171.22984 291.51567,167.97363 C 290.58215,171.11364 288.61732,81.280132 286.96998,78.070052 C 282.99831,87.972079 254.24683,93.227749 252.6248,87.666502 C 253.9379,90.880279 215.95325,134.48334 204.50948,140.53145 C 201.57364,142.08306 184.841,142.69079 138.47756,139.18428 C 133.04008,141.16459 126.19109,142.01569 129.89126,151.30611 C 134.41762,156.11678 138.88576,167.53202 141.50801,181.86323 C 137.38442,213.68303 117.74944,244.24015 105.14252,276.05995 C 98.619168,284.1816 95.863918,280.99898 95.040998,272.01934 L 128.37603,194.74267 C 134.25864,168.69164 122.19994,147.12593 89.990238,130.59798 L 92.515618,122.51676 L 185.44965,131.60814 L 206.15778,125.54722 L 243.77327,80.177022 L 238.85775,76.363562 C 236.4707,79.177382 233.56338,78.857432 231.54421,76.182362 C 228.44116,66.489652 228.85551,51.729912 217.9531,49.403262 L 29.381077,113.42539 C 22.555237,115.67294 19.801727,118.34957 26.470547,123.67485 C 22.884607,122.5842 18.673657,123.9161 15.087717,118.45495 z"
         style="fill:#eeeeec;fill-rule:evenodd;stroke:#2e3436;stroke-width:1.08460248px;stroke-linecap:butt;stroke-linejoin:miter;stroke-opacity:1" />
      <path
         transform="matrix(1.0526316,0,0,1.0972222,-151.11529,-251.71626)"
         d="M 416.42856,282.36218 A 27.142857,25.714285 0 1 1 362.14285,282.36218 A 27.142857,25.714285 0 1 1 416.42856,282.36218 z"
         sodipodi:ry="25.714285"
         sodipodi:rx="27.142857"
         sodipodi:cy="282.36218"
         sodipodi:cx="389.28571"
         id="path2475"
         style="opacity:1;fill:#babdb6;fill-opacity:1;fill-rule:nonzero;stroke:#2e3436;stroke-width:0.50460911;stroke-linecap:round;stroke-linejoin:round;stroke-miterlimit:4;stroke-dasharray:none;stroke-dashoffset:0;stroke-opacity:1"
         sodipodi:type="arc" />
      <path
         transform="matrix(0.9868421,0,0,1.042183,-125.84711,-236.20074)"
         d="M 416.42856,282.36218 A 27.142857,25.714285 0 1 1 362.14285,282.36218 A 27.142857,25.714285 0 1 1 416.42856,282.36218 z"
         sodipodi:ry="25.714285"
         sodipodi:rx="27.142857"
         sodipodi:cy="282.36218"
         sodipodi:cx="389.28571"
         id="path3277"
         style="opacity:1;fill:#babdb6;fill-opacity:1;fill-rule:nonzero;stroke:#2e3436;stroke-width:0.53474259;stroke-linecap:round;stroke-linejoin:round;stroke-miterlimit:4;stroke-dasharray:none;stroke-dashoffset:0;stroke-opacity:1"
         sodipodi:type="arc" />
    </g>
  </g>
</svg>
