<?xml version="1.0" encoding="UTF-8" standalone="no"?>
<!-- Generator: Adobe Illustrator 13.0.2, SVG Export Plug-In . SVG Version: 6.00 Build 14948)  -->

<svg
   xmlns:dc="http://purl.org/dc/elements/1.1/"
   xmlns:cc="http://creativecommons.org/ns#"
   xmlns:rdf="http://www.w3.org/1999/02/22-rdf-syntax-ns#"
   xmlns:svg="http://www.w3.org/2000/svg"
   xmlns="http://www.w3.org/2000/svg"
   xmlns:sodipodi="http://sodipodi.sourceforge.net/DTD/sodipodi-0.dtd"
   xmlns:inkscape="http://www.inkscape.org/namespaces/inkscape"
   version="1.0"
   id="Layer_1"
   x="0px"
   y="0px"
   width="64px"
   height="64px"
   viewBox="5.5 -3.5 64 64"
   enable-background="new 5.5 -3.5 64 64"
   xml:space="preserve"
   inkscape:version="0.48.2 r9819"
   sodipodi:docname="remix.svg"><metadata
   id="metadata15"><rdf:RDF><cc:Work
       rdf:about=""><dc:format>image/svg+xml</dc:format><dc:type
         rdf:resource="http://purl.org/dc/dcmitype/StillImage" /></cc:Work></rdf:RDF></metadata><defs
   id="defs13" /><sodipodi:namedview
   pagecolor="#ffffff"
   bordercolor="#666666"
   borderopacity="1"
   objecttolerance="10"
   gridtolerance="10"
   guidetolerance="10"
   inkscape:pageopacity="0"
   inkscape:pageshadow="2"
   inkscape:window-width="975"
   inkscape:window-height="762"
   id="namedview11"
   showgrid="false"
   inkscape:zoom="3.875"
   inkscape:cx="32"
   inkscape:cy="32"
   inkscape:window-x="0"
   inkscape:window-y="24"
   inkscape:window-maximized="0"
   inkscape:current-layer="Layer_1" />
<circle
   style="fill:#eeeeec"
   sodipodi:ry="28.834"
   sodipodi:rx="28.834"
   sodipodi:cy="28"
   sodipodi:cx="37.834"
   id="circle5"
   r="28.834"
   cy="28"
   cx="37.834" /><path
   d="m 37.443,-3.5 c 8.951,0 16.531,3.105 22.742,9.315 6.208,6.172 9.315,13.733 9.315,22.685 0,8.954 -3.049,16.457 -9.145,22.514 C 53.918,57.338 46.279,60.5 37.443,60.5 28.794,60.5 21.29,57.357 14.929,51.071 8.644,44.786 5.5,37.264 5.5,28.501 5.5,19.778 8.644,12.216 14.929,5.816 21.138,-0.395 28.643,-3.5 37.443,-3.5 z m 0.114,5.772 c -7.276,0 -13.428,2.572 -18.457,7.715 -5.22,5.296 -7.829,11.467 -7.829,18.513 0,7.125 2.59,13.257 7.77,18.4 5.181,5.182 11.352,7.771 18.514,7.771 7.123,0 13.334,-2.609 18.629,-7.828 5.029,-4.876 7.543,-10.99 7.543,-18.343 0,-7.313 -2.553,-13.485 -7.656,-18.513 C 51.004,4.842 44.832,2.272 37.557,2.272 z m 20.857,26.8 0.629,0.286 v 9.028 L 58.471,38.67 50.7,41.985 50.357,42.1 49.957,41.986 33.214,35.072 32.642,34.843 24.357,38.272 16.186,34.728 V 26.5 l 7.657,-3.201 -0.057,-0.057 v -9.029 l 8.686,-3.828 19.6,8.114 v 7.943 l 6.342,2.63 z M 49.328,39.584 V 33.929 H 49.271 V 33.7 l -14.686,-6 v 5.83 l 14.686,6.058 V 39.53 l 0.057,0.054 z m 0.971,-7.427 5.145,-2.114 -4.744,-2 -5.029,2.114 4.628,2 z m 6.744,4.915 V 31.53 l -5.715,2.4 v 5.6 l 5.715,-2.458 z"
   id="path9"
   style="fill:#4e9a06" />
</svg>